<svg width="186" height="15" viewBox="0 0 186 15" fill="none" xmlns="http://www.w3.org/2000/svg">
<path d="M12.6677 0.0647989V14.7129H10.5049V6.99998H2.22457V14.7129H0V0.0647989H2.16278V4.99072H10.5049V0.0647989H12.6677Z" fill="#222222"/>
<path d="M17.9202 14.713C16.8697 14.713 16.0664 14.4537 15.5103 13.8055C14.8923 13.2222 14.5834 12.4444 14.5834 11.4722V10.6944C14.5834 9.72222 14.8923 8.94444 15.5103 8.36111C16.0664 7.77778 16.9315 7.4537 17.9202 7.4537H23.6052V7.38889C23.6052 6.22222 22.9873 5.63889 21.7514 5.63889H15.4485V3.69445H21.7514C23.0491 3.69445 24.0378 4.08334 24.7793 4.73148C25.459 5.44445 25.8298 6.41667 25.8298 7.64815V11.537C25.8298 12.5093 25.5208 13.287 24.8411 13.8704C24.285 14.3889 23.4198 14.6481 22.3694 14.6481H17.9202V14.713ZM21.9368 9.39815H18.4764C17.3641 9.39815 16.8079 9.91666 16.8079 10.8889V11.2778C16.8079 12.25 17.3641 12.7685 18.4764 12.7685H21.9368C23.0491 12.7685 23.667 12.3148 23.667 11.2778V10.8889C23.667 9.91666 23.0491 9.39815 21.9368 9.39815Z" fill="#222222"/>
<path d="M32.2562 3.69445H34.419C35.7785 3.69445 36.829 4.08334 37.6323 4.92593C38.3738 5.76852 38.8064 6.93519 38.8064 8.36111V14.6481H36.6436V8.42592C36.6436 7.51852 36.4582 6.80556 36.1493 6.41667C35.7167 5.89815 35.0988 5.57408 34.2954 5.57408H32.4416C31.6383 5.57408 31.0822 5.83333 30.5878 6.41667C30.2789 6.80556 30.0935 7.51852 30.0935 8.42592V14.6481H27.9307V8.36111C27.9307 6.87037 28.3015 5.76852 29.1048 4.92593C29.7845 4.08334 30.8968 3.69445 32.2562 3.69445Z" fill="#222222"/>
<path d="M48.8788 13.2222C48.0755 14.1944 47.1486 14.713 45.9745 14.713H44.615C43.3792 14.713 42.4523 14.3241 41.7107 13.4815C41.031 12.7037 40.6602 11.6667 40.6602 10.3056V3.69445H42.823V10.3056C42.823 11.0833 43.0084 11.7315 43.3174 12.0555C43.6881 12.4444 44.1825 12.7037 44.8004 12.7037H45.7273C46.3453 12.7037 46.8396 12.5093 47.2104 12.0555C47.5193 11.6667 47.7047 11.0833 47.7047 10.3056V3.69445H49.8675V10.3056C49.8675 11.0833 50.0529 11.7315 50.3618 12.0555C50.7326 12.4444 51.227 12.7037 51.8449 12.7037H52.7718C53.3897 12.7037 53.8841 12.5093 54.2548 12.0555C54.5638 11.6667 54.7492 11.0833 54.7492 10.3056V3.69445H56.912V10.3056C56.912 11.6667 56.5412 12.7685 55.8615 13.4815C55.1199 14.2593 54.193 14.713 52.9572 14.713H51.5977C50.609 14.713 49.6203 14.1944 48.8788 13.2222Z" fill="#222222"/>
<path d="M63.462 5.63888C62.6587 5.63888 62.1025 5.89814 61.6082 6.48147C61.2992 6.87036 61.1138 7.58333 61.1138 8.49073V14.7129H58.9511V0H61.1138V4.34259C61.7318 3.88889 62.4733 3.69444 63.2766 3.69444H65.4394C66.7989 3.69444 67.8494 4.08333 68.6527 4.92592C69.3942 5.76851 69.8268 6.93518 69.8268 8.3611V14.6481H67.664V8.42592C67.664 7.51851 67.4786 6.80555 67.1696 6.41666C66.7371 5.89814 66.1191 5.57407 65.3158 5.57407H63.462V5.63888Z" fill="#222222"/>
<path d="M75.0175 14.713C73.967 14.713 73.1637 14.4537 72.6075 13.8055C71.9896 13.2222 71.6806 12.4444 71.6806 11.4722V10.6944C71.6806 9.72222 71.9896 8.94444 72.6075 8.36111C73.1637 7.77778 74.0288 7.4537 75.0175 7.4537H80.7025V7.38889C80.7025 6.22222 80.0846 5.63889 78.8487 5.63889H72.4839V3.69445H78.7869C80.0846 3.69445 81.0732 4.08334 81.8148 4.73148C82.4945 5.44445 82.8653 6.41667 82.8653 7.64815V11.537C82.8653 12.5093 82.5563 13.287 81.8766 13.8704C81.3204 14.3889 80.4553 14.6481 79.4048 14.6481H75.0175V14.713ZM78.9723 9.39815H75.5118C74.3995 9.39815 73.8434 9.91666 73.8434 10.8889V11.2778C73.8434 12.25 74.3995 12.7685 75.5118 12.7685H78.9723C80.0845 12.7685 80.7025 12.3148 80.7025 11.2778V10.8889C80.7025 9.91666 80.1463 9.39815 78.9723 9.39815Z" fill="#222222"/>
<path d="M100.538 0.0647989V2.07406H92.9994C91.64 2.07406 90.8984 2.65739 90.8984 3.69443V4.66665C90.8984 5.7685 91.5782 6.28701 92.9376 6.28701H97.016C98.3755 6.28701 99.3642 6.61109 100.106 7.25924C100.847 7.90738 101.218 8.81479 101.218 9.85183V11.2129C101.218 12.25 100.847 13.1574 100.106 13.8055C99.426 14.4537 98.3755 14.7777 97.016 14.7777H89.23V12.7685H96.8924C98.3137 12.7685 98.9934 12.25 98.9934 11.1481V9.98146C98.9934 8.87961 98.3137 8.36109 96.8924 8.36109H92.814C91.4546 8.36109 90.4041 8.03701 89.7244 7.38886C88.9828 6.74072 88.6739 5.89813 88.6739 4.79627V3.62961C88.6739 2.59257 89.0446 1.68517 89.7244 1.03702C90.4041 0.388873 91.4546 0.0647989 92.814 0.0647989H100.538Z" fill="#222222"/>
<path d="M110.549 14.713H107.335C106.038 14.713 104.987 14.3241 104.246 13.5463C103.504 12.7685 103.134 11.6667 103.134 10.2407V8.16667C103.134 6.74074 103.504 5.63889 104.246 4.86111C104.987 4.08334 105.976 3.69445 107.335 3.69445H110.549C111.846 3.69445 112.897 4.14815 113.638 4.86111C114.38 5.63889 114.751 6.74074 114.751 8.16667V10.2407C114.751 11.6667 114.38 12.7685 113.638 13.5463C112.897 14.3241 111.846 14.713 110.549 14.713ZM110.363 12.7685C111.105 12.7685 111.723 12.5093 112.094 11.9907C112.403 11.537 112.526 10.9537 112.526 10.1111V8.29629C112.526 7.4537 112.341 6.80556 112.094 6.41667C111.723 5.89815 111.167 5.63889 110.363 5.63889H107.459C106.718 5.63889 106.1 5.89815 105.729 6.41667C105.42 6.87037 105.296 7.4537 105.296 8.29629V10.1111C105.296 10.9537 105.42 11.537 105.729 11.9907C106.1 12.5093 106.656 12.7685 107.459 12.7685H110.363Z" fill="#222222"/>
<path d="M116.852 14.7129V0H119.076V14.7129H116.852Z" fill="#222222"/>
<path d="M125.565 14.713C124.205 14.713 123.155 14.3241 122.351 13.4815C121.548 12.7037 121.177 11.537 121.177 10.0463V3.69445H123.402V9.91666C123.402 10.8241 123.526 11.537 123.896 11.9259C124.329 12.4444 124.947 12.7037 125.75 12.7037H127.604C128.407 12.7037 129.025 12.4444 129.458 11.9259C129.767 11.4722 129.952 10.8241 129.952 9.91666V3.69445H132.177V10.0463C132.177 11.537 131.744 12.7037 131.003 13.4815C130.199 14.3241 129.149 14.713 127.789 14.713H125.565Z" fill="#222222"/>
<path d="M139.036 3.69446H142.311V5.6389H139.036V14.7778H136.811V5.6389H133.536V3.69446H136.811V1.2315H139.036V3.69446Z" fill="#222222"/>
<path d="M146.451 1.49072C146.451 1.94443 146.327 2.2685 146.018 2.52776C145.709 2.78702 145.4 2.91665 144.968 2.91665C144.535 2.91665 144.226 2.78702 143.979 2.52776C143.67 2.2685 143.547 1.94443 143.547 1.49072C143.547 1.03702 143.67 0.712947 143.979 0.453688C144.226 0.194429 144.535 0.0647989 144.968 0.0647989C145.4 0.0647989 145.709 0.194429 146.018 0.453688C146.327 0.712947 146.451 1.03702 146.451 1.49072ZM143.917 3.69443H146.142V14.7777H143.917V3.69443Z" fill="#222222"/>
<path d="M155.658 14.713H152.445C151.147 14.713 150.097 14.3241 149.355 13.5463C148.614 12.7685 148.243 11.6667 148.243 10.2407V8.16667C148.243 6.74074 148.614 5.63889 149.355 4.86111C150.097 4.08334 151.085 3.69445 152.445 3.69445H155.658C156.956 3.69445 158.006 4.14815 158.748 4.86111C159.489 5.63889 159.86 6.74074 159.86 8.16667V10.2407C159.86 11.6667 159.489 12.7685 158.748 13.5463C158.006 14.3241 157.018 14.713 155.658 14.713ZM155.535 12.7685C156.276 12.7685 156.894 12.5093 157.265 11.9907C157.574 11.537 157.697 10.9537 157.697 10.1111V8.29629C157.697 7.4537 157.512 6.80556 157.265 6.41667C156.894 5.89815 156.338 5.63889 155.535 5.63889H152.63C151.889 5.63889 151.271 5.89815 150.9 6.41667C150.591 6.87037 150.467 7.4537 150.467 8.29629V10.1111C150.467 10.9537 150.591 11.537 150.9 11.9907C151.271 12.5093 151.827 12.7685 152.63 12.7685H155.535Z" fill="#222222"/>
<path d="M166.163 3.69445H168.326C169.685 3.69445 170.736 4.14815 171.539 4.92593C172.281 5.76852 172.713 6.93519 172.713 8.42592V14.7778H170.55V8.55555C170.55 7.64815 170.365 6.93519 170.056 6.5463C169.624 6.02778 169.006 5.7037 168.202 5.7037H166.349C165.545 5.7037 164.989 5.96296 164.495 6.5463C164.186 7 164 7.64815 164 8.55555V14.7778H161.776V8.42592C161.776 6.93519 162.147 5.76852 162.95 4.92593C163.753 4.14815 164.804 3.69445 166.163 3.69445Z" fill="#222222"/>
<path d="M181.735 8.23148C182.909 8.23148 183.774 8.42592 184.33 8.81481C185.01 9.33333 185.381 10.0463 185.381 11.0833V11.9259C185.381 12.963 185.01 13.7407 184.33 14.1944C183.774 14.5833 182.909 14.7778 181.735 14.7778H174.752V12.7685H181.735C182.662 12.7685 183.156 12.4444 183.156 11.7315V11.2778C183.156 10.5648 182.662 10.2407 181.735 10.2407H178.089C176.915 10.2407 176.05 10.0463 175.494 9.6574C174.814 9.2037 174.443 8.42592 174.443 7.38889V6.5463C174.443 5.50926 174.752 4.73148 175.494 4.27778C176.05 3.88889 176.915 3.69445 178.089 3.69445H184.763V5.7037H178.089C177.162 5.7037 176.668 6.09259 176.668 6.74074V7.19444C176.668 7.90741 177.101 8.23148 178.089 8.23148H181.735Z" fill="#222222"/>
</svg>
