<svg width="52" height="52" viewBox="0 0 52 52" fill="none" xmlns="http://www.w3.org/2000/svg">
<path d="M19.7017 26.6179C19.0017 20.6179 25.3017 15.8179 33.7017 15.9179C42.1017 16.0179 49.4017 20.9179 50.1017 26.8179C50.8017 32.8179 44.5017 37.6179 36.1017 37.5179C27.7017 37.5179 20.4017 32.6179 19.7017 26.6179ZM51.7017 28.4179C50.9017 21.0179 42.5017 14.9179 32.8017 14.8179C23.1017 14.7179 15.9017 20.7179 16.7017 28.1179C17.5017 35.5179 25.9017 41.6179 35.6017 41.7179C45.2017 41.8179 52.4017 35.8179 51.7017 28.4179Z" fill="#EFAD83"/>
<path d="M37.1017 41.9179C32.3017 46.9179 24.7017 47.3179 20.1017 42.8179C15.4017 38.3179 15.5017 30.7179 20.3017 25.7179C25.1017 20.7179 32.7017 20.3179 37.4017 24.8179C41.9017 29.3179 41.9017 36.9179 37.1017 41.9179ZM19.5017 25.6179C14.0017 31.4179 13.9017 40.3179 19.3017 45.5179C24.7017 50.7179 33.6017 50.2179 39.1017 44.4179C44.6017 38.6179 44.7017 29.7179 39.3017 24.6179C33.9017 19.3179 25.0017 19.8179 19.5017 25.6179Z" fill="#EF966C"/>
<path d="M20.0017 7.01792C29.9017 3.31792 39.7017 7.01792 41.8017 15.4179C44.0017 23.7179 37.7017 33.5179 27.8017 37.2179C18.0017 40.8179 8.20173 37.1179 6.00173 28.8179C3.80173 20.4179 10.1017 10.7179 20.0017 7.01792ZM10.8017 10.1179C0.501728 18.3179 -2.09827 30.0179 5.00173 36.4179C12.0017 42.8179 26.1017 41.4179 36.3017 33.3179C46.5017 25.2179 49.2017 13.4179 42.1017 7.01792C35.1017 0.617918 21.1017 2.01792 10.8017 10.1179Z" fill="#F37321"/>
</svg>
