<svg width="236" height="35" viewBox="0 0 236 35" fill="none" xmlns="http://www.w3.org/2000/svg">
<path d="M14.3673 17.9479C13.869 13.3822 18.6648 9.74198 25.1421 9.80368C31.5572 9.86537 37.2249 13.5673 37.7232 18.133C38.2214 22.6987 33.4257 26.339 27.0106 26.2773C20.4709 26.2156 14.8655 22.4519 14.3673 17.9479ZM38.9065 19.3053C38.346 13.6907 31.8686 9.06329 24.457 9.00159C16.9831 8.93989 11.44 13.5056 12.0628 19.1202C12.6234 24.7348 19.1007 29.3622 26.5123 29.4239C33.924 29.4856 39.4671 24.9816 38.9065 19.3053Z" fill="#FBB584"/>
<path d="M27.6957 29.5473C24.021 33.311 18.1665 33.6195 14.6164 30.226C11.0663 26.8326 11.1286 21.0329 14.741 17.2693C18.4156 13.5056 24.2702 13.1971 27.8203 16.5906C31.3704 19.984 31.3081 25.7837 27.6957 29.5473ZM14.1804 17.1459C9.94521 21.5265 9.88293 28.3134 13.9936 32.2621C18.1665 36.2108 24.9553 35.8406 29.1905 31.46C33.4257 27.0794 33.488 20.2925 29.3773 16.3438C25.2044 12.3951 18.4156 12.7653 14.1804 17.1459Z" fill="#F89B6C"/>
<path d="M14.554 3.01682C22.1525 0.178673 29.6264 3.07852 31.308 9.3718C32.9897 15.7268 28.1939 23.1306 20.5954 25.9688C12.997 28.7452 5.46081 25.9071 3.84147 19.5521C2.15984 13.2588 6.95559 5.85497 14.554 3.01682ZM7.51613 5.42308C-0.331457 11.593 -2.38678 20.5393 3.0318 25.4135C8.45037 30.2877 19.2252 29.2388 27.0728 23.0072C34.9827 16.8374 36.9757 7.89103 31.5572 3.01682C26.1386 -1.79569 15.3637 -0.746809 7.51613 5.42308Z" fill="#F37321"/>
<path d="M61.2868 10.1759V24.824H59.1241V17.1111H50.8437V24.824H48.6191V10.1759H50.7819V15.1018H59.1241V10.1759H61.2868Z" fill="white"/>
<path d="M66.5394 24.824C65.4889 24.824 64.6855 24.5648 64.1294 23.9166C63.5115 23.3333 63.2025 22.5555 63.2025 21.5833V20.8055C63.2025 19.8333 63.5115 19.0555 64.1294 18.4722C64.6855 17.8889 65.5507 17.5648 66.5394 17.5648H72.2244V17.5C72.2244 16.3333 71.6064 15.75 70.3706 15.75H64.0676V13.8055H70.3706C71.6682 13.8055 72.6569 14.1944 73.3984 14.8426C74.0782 15.5555 74.4489 16.5278 74.4489 17.7592V21.6481C74.4489 22.6203 74.14 23.3981 73.4602 23.9814C72.9041 24.5 72.039 24.7592 70.9885 24.7592H66.5394V24.824ZM70.5559 19.5092H67.0955C65.9832 19.5092 65.4271 20.0277 65.4271 21V21.3889C65.4271 22.3611 65.9832 22.8796 67.0955 22.8796H70.5559C71.6682 22.8796 72.2862 22.4259 72.2862 21.3889V21C72.2862 20.0277 71.6682 19.5092 70.5559 19.5092Z" fill="white"/>
<path d="M80.8754 13.8055H83.0382C84.3976 13.8055 85.4481 14.1944 86.2514 15.037C86.993 15.8796 87.4255 17.0463 87.4255 18.4722V24.7592H85.2627V18.537C85.2627 17.6296 85.0774 16.9166 84.7684 16.5278C84.3358 16.0092 83.7179 15.6852 82.9146 15.6852H81.0608C80.2575 15.6852 79.7013 15.9444 79.207 16.5278C78.898 16.9166 78.7126 17.6296 78.7126 18.537V24.7592H76.5498V18.4722C76.5498 16.9815 76.9206 15.8796 77.7239 15.037C78.4036 14.1944 79.5159 13.8055 80.8754 13.8055Z" fill="white"/>
<path d="M97.4979 23.3333C96.6946 24.3055 95.7677 24.824 94.5936 24.824H93.2342C91.9983 24.824 91.0714 24.4352 90.3299 23.5926C89.6501 22.8148 89.2794 21.7777 89.2794 20.4166V13.8055H91.4422V20.4166C91.4422 21.1944 91.6275 21.8426 91.9365 22.1666C92.3073 22.5555 92.8016 22.8148 93.4196 22.8148H94.3465C94.9644 22.8148 95.4587 22.6203 95.8295 22.1666C96.1385 21.7777 96.3239 21.1944 96.3239 20.4166V13.8055H98.4866V20.4166C98.4866 21.1944 98.672 21.8426 98.981 22.1666C99.3517 22.5555 99.8461 22.8148 100.464 22.8148H101.391C102.009 22.8148 102.503 22.6203 102.874 22.1666C103.183 21.7777 103.368 21.1944 103.368 20.4166V13.8055H105.531V20.4166C105.531 21.7777 105.16 22.8796 104.481 23.5926C103.739 24.3703 102.812 24.824 101.576 24.824H100.217C99.2282 24.824 98.2395 24.3055 97.4979 23.3333Z" fill="white"/>
<path d="M112.081 15.75C111.278 15.75 110.722 16.0092 110.227 16.5926C109.918 16.9814 109.733 17.6944 109.733 18.6018V24.824H107.57V10.1111H109.733V14.4537C110.351 14 111.092 13.8055 111.896 13.8055H114.059C115.418 13.8055 116.468 14.1944 117.272 15.037C118.013 15.8796 118.446 17.0463 118.446 18.4722V24.7592H116.283V18.537C116.283 17.6296 116.098 16.9166 115.789 16.5277C115.356 16.0092 114.738 15.6852 113.935 15.6852H112.081V15.75Z" fill="white"/>
<path d="M123.637 24.824C122.586 24.824 121.783 24.5648 121.227 23.9166C120.609 23.3333 120.3 22.5555 120.3 21.5833V20.8055C120.3 19.8333 120.609 19.0555 121.227 18.4722C121.783 17.8889 122.648 17.5648 123.637 17.5648H129.322V17.5C129.322 16.3333 128.704 15.75 127.468 15.75H121.103V13.8055H127.406C128.704 13.8055 129.692 14.1944 130.434 14.8426C131.114 15.5555 131.484 16.5278 131.484 17.7592V21.6481C131.484 22.6203 131.175 23.3981 130.496 23.9814C129.94 24.5 129.074 24.7592 128.024 24.7592H123.637V24.824ZM127.591 19.5092H124.131C123.019 19.5092 122.463 20.0277 122.463 21V21.3889C122.463 22.3611 123.019 22.8796 124.131 22.8796H127.591C128.704 22.8796 129.322 22.4259 129.322 21.3889V21C129.322 20.0277 128.765 19.5092 127.591 19.5092Z" fill="white"/>
<path d="M149.157 10.1759V12.1851H141.619C140.259 12.1851 139.518 12.7685 139.518 13.8055V14.7777C139.518 15.8796 140.197 16.3981 141.557 16.3981H145.635C146.995 16.3981 147.983 16.7222 148.725 17.3703C149.466 18.0185 149.837 18.9259 149.837 19.9629V21.324C149.837 22.3611 149.466 23.2685 148.725 23.9166C148.045 24.5648 146.995 24.8888 145.635 24.8888H137.849V22.8796H145.512C146.933 22.8796 147.613 22.3611 147.613 21.2592V20.0925C147.613 18.9907 146.933 18.4722 145.512 18.4722H141.433C140.074 18.4722 139.023 18.1481 138.343 17.4999C137.602 16.8518 137.293 16.0092 137.293 14.9074V13.7407C137.293 12.7037 137.664 11.7963 138.343 11.1481C139.023 10.5 140.074 10.1759 141.433 10.1759H149.157Z" fill="white"/>
<path d="M159.168 24.824H155.955C154.657 24.824 153.606 24.4352 152.865 23.6574C152.123 22.8796 151.753 21.7777 151.753 20.3518V18.2778C151.753 16.8518 152.123 15.75 152.865 14.9722C153.606 14.1944 154.595 13.8055 155.955 13.8055H159.168C160.466 13.8055 161.516 14.2592 162.258 14.9722C162.999 15.75 163.37 16.8518 163.37 18.2778V20.3518C163.37 21.7777 162.999 22.8796 162.258 23.6574C161.516 24.4352 160.466 24.824 159.168 24.824ZM158.983 22.8796C159.724 22.8796 160.342 22.6203 160.713 22.1018C161.022 21.6481 161.145 21.0648 161.145 20.2222V18.4074C161.145 17.5648 160.96 16.9166 160.713 16.5278C160.342 16.0092 159.786 15.75 158.983 15.75H156.078C155.337 15.75 154.719 16.0092 154.348 16.5278C154.039 16.9815 153.915 17.5648 153.915 18.4074V20.2222C153.915 21.0648 154.039 21.6481 154.348 22.1018C154.719 22.6203 155.275 22.8796 156.078 22.8796H158.983Z" fill="white"/>
<path d="M165.471 24.824V10.1111H167.696V24.824H165.471Z" fill="white"/>
<path d="M174.184 24.824C172.824 24.824 171.774 24.4352 170.971 23.5926C170.167 22.8148 169.797 21.6481 169.797 20.1574V13.8055H172.021V20.0277C172.021 20.9352 172.145 21.6481 172.515 22.037C172.948 22.5555 173.566 22.8148 174.369 22.8148H176.223C177.026 22.8148 177.644 22.5555 178.077 22.037C178.386 21.5833 178.571 20.9352 178.571 20.0277V13.8055H180.796V20.1574C180.796 21.6481 180.363 22.8148 179.622 23.5926C178.818 24.4352 177.768 24.824 176.408 24.824H174.184Z" fill="white"/>
<path d="M187.655 13.8055H190.93V15.75H187.655V24.8889H185.43V15.75H182.155V13.8055H185.43V11.3426H187.655V13.8055Z" fill="white"/>
<path d="M195.07 11.6018C195.07 12.0555 194.947 12.3796 194.638 12.6388C194.329 12.8981 194.02 13.0277 193.587 13.0277C193.154 13.0277 192.846 12.8981 192.598 12.6388C192.289 12.3796 192.166 12.0555 192.166 11.6018C192.166 11.1481 192.289 10.824 192.598 10.5648C192.846 10.3055 193.154 10.1759 193.587 10.1759C194.02 10.1759 194.329 10.3055 194.638 10.5648C194.947 10.824 195.07 11.1481 195.07 11.6018ZM192.537 13.8055H194.761V24.8888H192.537V13.8055Z" fill="white"/>
<path d="M204.277 24.824H201.064C199.766 24.824 198.716 24.4352 197.974 23.6574C197.233 22.8796 196.862 21.7777 196.862 20.3518V18.2778C196.862 16.8518 197.233 15.75 197.974 14.9722C198.716 14.1944 199.705 13.8055 201.064 13.8055H204.277C205.575 13.8055 206.625 14.2592 207.367 14.9722C208.108 15.75 208.479 16.8518 208.479 18.2778V20.3518C208.479 21.7777 208.108 22.8796 207.367 23.6574C206.625 24.4352 205.637 24.824 204.277 24.824ZM204.154 22.8796C204.895 22.8796 205.513 22.6203 205.884 22.1018C206.193 21.6481 206.316 21.0648 206.316 20.2222V18.4074C206.316 17.5648 206.131 16.9166 205.884 16.5278C205.513 16.0092 204.957 15.75 204.154 15.75H201.249C200.508 15.75 199.89 16.0092 199.519 16.5278C199.21 16.9815 199.087 17.5648 199.087 18.4074V20.2222C199.087 21.0648 199.21 21.6481 199.519 22.1018C199.89 22.6203 200.446 22.8796 201.249 22.8796H204.154Z" fill="white"/>
<path d="M214.782 13.8055H216.945C218.305 13.8055 219.355 14.2592 220.158 15.037C220.9 15.8796 221.332 17.0463 221.332 18.537V24.8889H219.17V18.6666C219.17 17.7592 218.984 17.0463 218.675 16.6574C218.243 16.1389 217.625 15.8148 216.821 15.8148H214.968C214.164 15.8148 213.608 16.074 213.114 16.6574C212.805 17.1111 212.619 17.7592 212.619 18.6666V24.8889H210.395V18.537C210.395 17.0463 210.766 15.8796 211.569 15.037C212.372 14.2592 213.423 13.8055 214.782 13.8055Z" fill="white"/>
<path d="M230.354 18.3426C231.528 18.3426 232.393 18.537 232.95 18.9259C233.629 19.4444 234 20.1574 234 21.1944V22.037C234 23.074 233.629 23.8518 232.95 24.3055C232.393 24.6944 231.528 24.8889 230.354 24.8889H223.372V22.8796H230.354C231.281 22.8796 231.776 22.5555 231.776 21.8426V21.3889C231.776 20.6759 231.281 20.3518 230.354 20.3518H226.708C225.534 20.3518 224.669 20.1574 224.113 19.7685C223.433 19.3148 223.063 18.537 223.063 17.5V16.6574C223.063 15.6203 223.372 14.8426 224.113 14.3889C224.669 14 225.534 13.8055 226.708 13.8055H233.382V15.8148H226.708C225.782 15.8148 225.287 16.2037 225.287 16.8518V17.3055C225.287 18.0185 225.72 18.3426 226.708 18.3426H230.354Z" fill="white"/>
</svg>
